<?xml version="1.0" encoding="iso-8859-1"?>
<!-- Generator: Adobe Illustrator 21.0.0, SVG Export Plug-In . SVG Version: 6.00 Build 0)  -->
<svg version="1.1" id="Layer_1" xmlns="http://www.w3.org/2000/svg" xmlns:xlink="http://www.w3.org/1999/xlink" x="0px" y="0px"
	 viewBox="0 0 24 24" enable-background="new 0 0 24 24" xml:space="preserve">
<path fill="000000" d="M12,0C5.3833008,0,0,5.3833008,0,12s5.3833008,12,12,12s12-5.3833008,12-12S18.6166992,0,12,0z M12,9
	c1.6542969,0,3,1.3457031,3,3s-1.3457031,3-3,3s-3-1.3457031-3-3S10.3457031,9,12,9z M12,23C5.9345703,23,1,18.0654297,1,12
	c0-0.0279541,0.0040283-0.0548706,0.0042114-0.0827637c0.9520264,0.2026978,3.010498,0.5412598,6.0454712,0.5742798
	C7.3007813,15.0151367,9.411499,17,12,17s4.6992188-1.9848633,4.9503174-4.5084839
	c3.0349731-0.03302,5.0934448-0.371582,6.0454712-0.5742798C22.9959717,11.9451294,23,11.9720459,23,12
	C23,18.0654297,18.0654297,23,12,23z"/>
<g>
</g>
<g>
</g>
<g>
</g>
<g>
</g>
<g>
</g>
<g>
</g>
<g>
</g>
<g>
</g>
<g>
</g>
<g>
</g>
<g>
</g>
<g>
</g>
<g>
</g>
<g>
</g>
<g>
</g>
</svg>
